<svg width="97" height="98" xmlns="http://www.w3.org/2000/svg" xmlns:xlink="http://www.w3.org/1999/xlink" overflow="hidden"><defs><clipPath id="clip0"><path d="M594 144 691 144 691 242 594 242Z" fill-rule="evenodd" clip-rule="evenodd"/></clipPath><clipPath id="clip1"><path d="M594 145 690 145 690 241 594 241Z" fill-rule="evenodd" clip-rule="evenodd"/></clipPath><clipPath id="clip2"><path d="M594 145 690 145 690 241 594 241Z" fill-rule="evenodd" clip-rule="evenodd"/></clipPath><clipPath id="clip3"><path d="M594 145 690 145 690 241 594 241Z" fill-rule="evenodd" clip-rule="evenodd"/></clipPath><clipPath id="clip4"><path d="M612 164 655 164 655 206 612 206Z" fill-rule="evenodd" clip-rule="evenodd"/></clipPath><clipPath id="clip5"><path d="M612 164 655 164 655 206 612 206Z" fill-rule="evenodd" clip-rule="evenodd"/></clipPath><clipPath id="clip6"><path d="M612 164 655 164 655 206 612 206Z" fill-rule="evenodd" clip-rule="evenodd"/></clipPath></defs><g clip-path="url(#clip0)" transform="translate(-594 -144)"><g clip-path="url(#clip1)"><g clip-path="url(#clip2)"><g clip-path="url(#clip3)"><path d="M679.5 220.6 667 208.1C665.3 206.4 663 205.8 660.8 206.2L656.4 201.8C660.3 196.8 662.6 190.4 662.6 183.6 662.6 167.1 649.1 153.6 632.6 153.6 616.1 153.6 602.6 167.1 602.6 183.6 602.6 200.1 616.1 213.6 632.6 213.6 639.4 213.6 645.7 211.3 650.8 207.4L655.2 211.8C654.8 214 655.4 216.3 657.1 218L669.6 230.5C671 231.9 672.8 232.6 674.6 232.6 676.4 232.6 678.2 231.9 679.6 230.5 682.2 227.7 682.2 223.3 679.5 220.6ZM632.5 207.5C619.3 207.5 608.5 196.7 608.5 183.5 608.5 170.3 619.3 159.5 632.5 159.5 645.7 159.5 656.5 170.3 656.5 183.5 656.5 196.7 645.7 207.5 632.5 207.5Z" fill="#2E75B6"/></g></g></g><g clip-path="url(#clip4)"><g clip-path="url(#clip5)"><g clip-path="url(#clip6)"><path d="M33.25 7.875C33.25 9.808 27.7655 11.375 21 11.375 14.2345 11.375 8.75 9.808 8.75 7.875 8.75 5.942 14.2345 4.375 21 4.375 27.7655 4.375 33.25 5.942 33.25 7.875Z" fill="#2E75B6" transform="matrix(1.02381 0 -0 1 612 164)"/><path d="M29.75 16.625C29.225 16.625 28.875 16.275 28.875 15.75 28.875 15.225 29.225 14.875 29.75 14.875 30.275 14.875 30.625 15.225 30.625 15.75 30.625 16.275 30.275 16.625 29.75 16.625ZM21 13.125C14.2625 13.125 8.75 11.55 8.75 9.625L8.75 16.625C8.75 18.55 14.2625 20.125 21 20.125 27.7375 20.125 33.25 18.55 33.25 16.625L33.25 9.625C33.25 11.55 27.7375 13.125 21 13.125Z" fill="#2E75B6" transform="matrix(1.02381 0 -0 1 612 164)"/><path d="M29.75 25.375C29.225 25.375 28.875 25.025 28.875 24.5 28.875 23.975 29.225 23.625 29.75 23.625 30.275 23.625 30.625 23.975 30.625 24.5 30.625 25.025 30.275 25.375 29.75 25.375ZM21 21.875C14.2625 21.875 8.75 20.3 8.75 18.375L8.75 25.375C8.75 27.3 14.2625 28.875 21 28.875 27.7375 28.875 33.25 27.3 33.25 25.375L33.25 18.375C33.25 20.3 27.7375 21.875 21 21.875Z" fill="#2E75B6" transform="matrix(1.02381 0 -0 1 612 164)"/><path d="M29.75 34.125C29.225 34.125 28.875 33.775 28.875 33.25 28.875 32.725 29.225 32.375 29.75 32.375 30.275 32.375 30.625 32.725 30.625 33.25 30.625 33.775 30.275 34.125 29.75 34.125ZM21 30.625C14.2625 30.625 8.75 29.05 8.75 27.125L8.75 34.125C8.75 36.05 14.2625 37.625 21 37.625 27.7375 37.625 33.25 36.05 33.25 34.125L33.25 27.125C33.25 29.05 27.7375 30.625 21 30.625Z" fill="#2E75B6" transform="matrix(1.02381 0 -0 1 612 164)"/></g></g></g></g></svg>